<svg xmlns="http://www.w3.org/2000/svg" version="1.1" xmlns:xlink="http://www.w3.org/1999/xlink" xmlns:svgjs="http://svgjs.dev/svgjs" width="1000" height="623" viewBox="0 0 1000 623"><g transform="matrix(1,0,0,1,-0.6060606060606233,0.2522267206477409)"><svg viewBox="0 0 396 247" data-background-color="#ffffff" preserveAspectRatio="xMidYMid meet" height="623" width="1000" xmlns="http://www.w3.org/2000/svg" xmlns:xlink="http://www.w3.org/1999/xlink"><g id="tight-bounds" transform="matrix(1,0,0,1,0.2400000000000091,-0.09999999999999432)"><svg viewBox="0 0 395.52 247.2" height="247.2" width="395.52"><g><svg></svg></g><g><svg viewBox="0 0 395.52 247.2" height="247.2" width="395.52"><mask id="7e348218-0324-4cc1-b249-06026a9bcd3e"><rect width="640" height="400" fill="white"></rect><g transform="matrix(1,0,0,1,39.55199999999999,75.88919545208445)"><svg viewBox="0 0 316.416 95.42160909583109" height="95.42160909583109" width="316.416"><g><svg viewBox="0 0 316.416 95.42160909583109" height="95.42160909583109" width="316.416"><g><svg viewBox="0 0 316.416 95.42160909583109" height="95.42160909583109" width="316.416"><g><svg viewBox="0 0 316.416 95.42160909583109" height="95.42160909583109" width="316.416"><g id="SvgjsG1142"><svg viewBox="0 0 316.416 95.42160909583109" height="95.42160909583109" width="316.416" id="SvgjsSvg1141"><g><svg viewBox="0 0 316.416 95.42160909583109" height="95.42160909583109" width="316.416"><g transform="matrix(1,0,0,1,0,0)"><svg width="316.416" viewBox="-1.75 -42.099998474121094 185.69000244140625 56.69999694824219" height="95.42160909583109" data-palette-color="#010c80"><path d="M2.25 0L2.25-3 5.8-3 5.8-31.9 2.25-31.9 2.25-34.9 29.5-34.9 29.5-25.85 24.35-25.85 24.35-31.65 12.8-31.65 12.8-19.1 20.4-19.1 20.4-22.4 23.85-22.4 23.85-12.55 20.4-12.55 20.4-15.85 12.8-15.85 12.8-3 17.55-3 17.55 0 2.25 0ZM33.95 0L33.95-3 37.5-3 37.5-31.9 33.95-31.9 33.95-34.9 52.6-34.9Q54.9-34.9 56.8-34.38 58.7-33.85 60.07-32.75 61.45-31.65 62.2-29.95 62.95-28.25 62.95-25.95L62.95-25.95Q62.95-22.35 60.8-20 58.65-17.65 55.25-16.95L55.25-16.95 61.55-6.1Q62.55-4.35 63.65-3.68 64.75-3 66.45-3L66.45-3 66.75-3 66.75 0 62.5 0Q60.85 0 59.62-0.28 58.4-0.55 57.47-1.15 56.55-1.75 55.85-2.65 55.15-3.55 54.5-4.75L54.5-4.75 48.9-15.65 44.5-15.65 44.5-3 48.05-3 48.05 0 33.95 0ZM44.5-31.65L44.5-18.75 50.35-18.75Q53-18.75 54.37-20.05 55.75-21.35 55.75-23.8L55.75-23.8 55.75-26.6Q55.75-29.05 54.37-30.35 53-31.65 50.35-31.65L50.35-31.65 44.5-31.65ZM76-30.25L76-30.25Q74.15-30.25 73.12-31.3 72.09-32.35 72.09-34.05L72.09-34.05 72.09-34.3Q72.09-36 73.12-37.05 74.15-38.1 76-38.1L76-38.1Q77.84-38.1 78.87-37.05 79.9-36 79.9-34.3L79.9-34.3 79.9-34.05Q79.9-32.35 78.87-31.3 77.84-30.25 76-30.25ZM69.55 0L69.55-3 72.75-3 72.75-21.55 69.55-22.2 69.55-24.7 79.3-26.7 79.3-3 82.5-3 82.5 0 69.55 0ZM85.69 10.6L85.69 10.6Q82.84 10.6 81.44 9.43 80.04 8.25 80.04 6.3L80.04 6.3Q80.04 4.9 80.89 4 81.74 3.1 83.14 3.1L83.14 3.1Q84.59 3.1 85.32 3.93 86.04 4.75 86.04 5.95L86.04 5.95Q86.04 7.65 85.09 8.15L85.09 8.15 85.09 8.35Q85.34 8.45 85.57 8.45 85.79 8.45 86.04 8.45L86.04 8.45Q87.39 8.45 88.17 7.33 88.94 6.2 88.94 3.7L88.94 3.7 88.94-21.55 85.74-22.2 85.74-24.7 95.49-26.7 95.49 0.65Q95.49 5.8 92.94 8.2 90.39 10.6 85.69 10.6ZM92.19-30.25L92.19-30.25Q90.34-30.25 89.32-31.3 88.29-32.35 88.29-34.05L88.29-34.05 88.29-34.3Q88.29-36 89.32-37.05 90.34-38.1 92.19-38.1L92.19-38.1Q94.04-38.1 95.07-37.05 96.09-36 96.09-34.3L96.09-34.3 96.09-34.05Q96.09-32.35 95.07-31.3 94.04-30.25 92.19-30.25ZM109.54 0.6L109.54 0.6Q105.49 0.6 103.54-1.35 101.59-3.3 101.59-6.75L101.59-6.75Q101.59-10.55 104.37-12.5 107.14-14.45 113.04-14.45L113.04-14.45 116.59-14.45 116.59-17.6Q116.59-20.65 115.34-22.23 114.09-23.8 111.24-23.8L111.24-23.8Q109.04-23.8 107.84-23.15L107.84-23.15 107.84-22.95Q108.34-22.65 108.82-22.03 109.29-21.4 109.29-20.3L109.29-20.3Q109.29-18.85 108.42-17.93 107.54-17 105.84-17L105.84-17Q104.39-17 103.47-17.95 102.54-18.9 102.54-20.45L102.54-20.45Q102.54-21.65 103.22-22.78 103.89-23.9 105.24-24.78 106.59-25.65 108.57-26.18 110.54-26.7 113.14-26.7L113.14-26.7Q118.14-26.7 120.64-24.43 123.14-22.15 123.14-18.05L123.14-18.05 123.14-2.95 126.34-2.95 126.34-0.45Q125.59 0.05 124.34 0.33 123.09 0.6 121.79 0.6L121.79 0.6Q119.29 0.6 118.19-0.63 117.09-1.85 117.09-3.75L117.09-3.75 117.09-3.9 116.84-3.9Q116.49-3.05 115.94-2.25 115.39-1.45 114.54-0.83 113.69-0.2 112.47 0.2 111.24 0.6 109.54 0.6ZM112.09-3.4L112.09-3.4Q114.09-3.4 115.34-4.35 116.59-5.3 116.59-7.55L116.59-7.55 116.59-11.75 113.74-11.75Q110.74-11.75 109.47-10.68 108.19-9.6 108.19-7.6L108.19-7.6 108.19-6.7Q108.19-5 109.27-4.2 110.34-3.4 112.09-3.4ZM129.64 0L129.64-2.7 143.39-22.9 134.39-22.9 134.39-18.3 130.04-18.3 130.04-26.1 151.19-26.1 151.19-23.4 137.44-3.15 147.24-3.15 147.24-7.8 151.59-7.8 151.59 0 129.64 0ZM163.14 0.6L163.14 0.6Q159.09 0.6 157.14-1.35 155.19-3.3 155.19-6.75L155.19-6.75Q155.19-10.55 157.96-12.5 160.74-14.45 166.64-14.45L166.64-14.45 170.19-14.45 170.19-17.6Q170.19-20.65 168.94-22.23 167.69-23.8 164.84-23.8L164.84-23.8Q162.64-23.8 161.44-23.15L161.44-23.15 161.44-22.95Q161.94-22.65 162.41-22.03 162.89-21.4 162.89-20.3L162.89-20.3Q162.89-18.85 162.01-17.93 161.14-17 159.44-17L159.44-17Q157.99-17 157.06-17.95 156.14-18.9 156.14-20.45L156.14-20.45Q156.14-21.65 156.81-22.78 157.49-23.9 158.84-24.78 160.19-25.65 162.16-26.18 164.14-26.7 166.74-26.7L166.74-26.7Q171.74-26.7 174.24-24.43 176.74-22.15 176.74-18.05L176.74-18.05 176.74-2.95 179.94-2.95 179.94-0.45Q179.19 0.05 177.94 0.33 176.69 0.6 175.39 0.6L175.39 0.6Q172.89 0.6 171.79-0.63 170.69-1.85 170.69-3.75L170.69-3.75 170.69-3.9 170.44-3.9Q170.09-3.05 169.54-2.25 168.99-1.45 168.14-0.83 167.29-0.2 166.06 0.2 164.84 0.6 163.14 0.6ZM165.69-3.4L165.69-3.4Q167.69-3.4 168.94-4.35 170.19-5.3 170.19-7.55L170.19-7.55 170.19-11.75 167.34-11.75Q164.34-11.75 163.06-10.68 161.79-9.6 161.79-7.6L161.79-7.6 161.79-6.7Q161.79-5 162.86-4.2 163.94-3.4 165.69-3.4Z" opacity="1" transform="matrix(1,0,0,1,0,0)" fill="black" class="wordmark-text-0" id="SvgjsPath1140" stroke-width="7" stroke="black" stroke-linejoin="round"></path></svg></g></svg></g></svg></g></svg></g></svg></g></svg></g></svg></g></mask><g transform="matrix(1,0,0,1,39.55199999999999,75.88919545208445)"><svg viewBox="0 0 316.416 95.42160909583109" height="95.42160909583109" width="316.416"><g><svg viewBox="0 0 316.416 95.42160909583109" height="95.42160909583109" width="316.416"><g><svg viewBox="0 0 316.416 95.42160909583109" height="95.42160909583109" width="316.416"><g><svg viewBox="0 0 316.416 95.42160909583109" height="95.42160909583109" width="316.416"><g id="textblocktransform"><svg viewBox="0 0 316.416 95.42160909583109" height="95.42160909583109" width="316.416" id="textblock"><g><svg viewBox="0 0 316.416 95.42160909583109" height="95.42160909583109" width="316.416"><g transform="matrix(1,0,0,1,0,0)"><svg width="316.416" viewBox="-1.75 -42.099998474121094 185.69000244140625 56.69999694824219" height="95.42160909583109" data-palette-color="#010c80"><path d="M2.25 0L2.25-3 5.8-3 5.8-31.9 2.25-31.9 2.25-34.9 29.5-34.9 29.5-25.85 24.35-25.85 24.35-31.65 12.8-31.65 12.8-19.1 20.4-19.1 20.4-22.4 23.85-22.4 23.85-12.55 20.4-12.55 20.4-15.85 12.8-15.85 12.8-3 17.55-3 17.55 0 2.25 0ZM33.95 0L33.95-3 37.5-3 37.5-31.9 33.95-31.9 33.95-34.9 52.6-34.9Q54.9-34.9 56.8-34.38 58.7-33.85 60.07-32.75 61.45-31.65 62.2-29.95 62.95-28.25 62.95-25.95L62.95-25.95Q62.95-22.35 60.8-20 58.65-17.65 55.25-16.95L55.25-16.95 61.55-6.1Q62.55-4.35 63.65-3.68 64.75-3 66.45-3L66.45-3 66.75-3 66.75 0 62.5 0Q60.85 0 59.62-0.28 58.4-0.55 57.47-1.15 56.55-1.75 55.85-2.65 55.15-3.55 54.5-4.75L54.5-4.75 48.9-15.65 44.5-15.65 44.5-3 48.05-3 48.05 0 33.95 0ZM44.5-31.65L44.5-18.75 50.35-18.75Q53-18.75 54.37-20.05 55.75-21.35 55.75-23.8L55.75-23.8 55.75-26.6Q55.75-29.05 54.37-30.35 53-31.65 50.35-31.65L50.35-31.65 44.5-31.65ZM76-30.25L76-30.25Q74.15-30.25 73.12-31.3 72.09-32.35 72.09-34.05L72.09-34.05 72.09-34.3Q72.09-36 73.12-37.05 74.15-38.1 76-38.1L76-38.1Q77.84-38.1 78.87-37.05 79.9-36 79.9-34.3L79.9-34.3 79.9-34.05Q79.9-32.35 78.87-31.3 77.84-30.25 76-30.25ZM69.55 0L69.55-3 72.75-3 72.75-21.55 69.55-22.2 69.55-24.7 79.3-26.7 79.3-3 82.5-3 82.5 0 69.55 0ZM85.69 10.6L85.69 10.6Q82.84 10.6 81.44 9.43 80.04 8.25 80.04 6.3L80.04 6.3Q80.04 4.9 80.89 4 81.74 3.1 83.14 3.1L83.14 3.1Q84.59 3.1 85.32 3.93 86.04 4.75 86.04 5.95L86.04 5.95Q86.04 7.65 85.09 8.15L85.09 8.15 85.09 8.35Q85.34 8.45 85.57 8.45 85.79 8.45 86.04 8.45L86.04 8.45Q87.39 8.45 88.17 7.33 88.94 6.2 88.94 3.7L88.94 3.7 88.94-21.55 85.74-22.2 85.74-24.7 95.49-26.7 95.49 0.65Q95.49 5.8 92.94 8.2 90.39 10.6 85.69 10.6ZM92.19-30.25L92.19-30.25Q90.34-30.25 89.32-31.3 88.29-32.35 88.29-34.05L88.29-34.05 88.29-34.3Q88.29-36 89.32-37.05 90.34-38.1 92.19-38.1L92.19-38.1Q94.04-38.1 95.07-37.05 96.09-36 96.09-34.3L96.09-34.3 96.09-34.05Q96.09-32.35 95.07-31.3 94.04-30.25 92.19-30.25ZM109.54 0.6L109.54 0.6Q105.49 0.6 103.54-1.35 101.59-3.3 101.59-6.75L101.59-6.75Q101.59-10.55 104.37-12.5 107.14-14.45 113.04-14.45L113.04-14.45 116.59-14.45 116.59-17.6Q116.59-20.65 115.34-22.23 114.09-23.8 111.24-23.8L111.24-23.8Q109.04-23.8 107.84-23.15L107.84-23.15 107.84-22.95Q108.34-22.65 108.82-22.03 109.29-21.4 109.29-20.3L109.29-20.3Q109.29-18.85 108.42-17.93 107.54-17 105.84-17L105.84-17Q104.39-17 103.47-17.95 102.54-18.9 102.54-20.45L102.54-20.45Q102.54-21.65 103.22-22.78 103.89-23.9 105.24-24.78 106.59-25.65 108.57-26.18 110.54-26.7 113.14-26.7L113.14-26.7Q118.14-26.7 120.64-24.43 123.14-22.15 123.14-18.05L123.14-18.05 123.14-2.95 126.34-2.95 126.34-0.45Q125.59 0.05 124.34 0.33 123.09 0.6 121.79 0.6L121.79 0.6Q119.29 0.6 118.19-0.63 117.09-1.85 117.09-3.75L117.09-3.75 117.09-3.9 116.84-3.9Q116.49-3.05 115.94-2.25 115.39-1.45 114.54-0.83 113.69-0.2 112.47 0.2 111.24 0.6 109.54 0.6ZM112.09-3.4L112.09-3.4Q114.09-3.4 115.34-4.35 116.59-5.3 116.59-7.55L116.59-7.55 116.59-11.75 113.74-11.75Q110.74-11.75 109.47-10.68 108.19-9.6 108.19-7.6L108.19-7.6 108.19-6.7Q108.19-5 109.27-4.2 110.34-3.4 112.09-3.4ZM129.64 0L129.64-2.7 143.39-22.9 134.39-22.9 134.39-18.3 130.04-18.3 130.04-26.1 151.19-26.1 151.19-23.4 137.44-3.15 147.24-3.15 147.24-7.8 151.59-7.8 151.59 0 129.64 0ZM163.14 0.6L163.14 0.6Q159.09 0.6 157.14-1.35 155.19-3.3 155.19-6.75L155.19-6.75Q155.19-10.55 157.96-12.5 160.74-14.45 166.64-14.45L166.64-14.45 170.19-14.45 170.19-17.6Q170.19-20.65 168.94-22.23 167.69-23.8 164.84-23.8L164.84-23.8Q162.64-23.8 161.44-23.15L161.44-23.15 161.44-22.95Q161.94-22.65 162.41-22.03 162.89-21.4 162.89-20.3L162.89-20.3Q162.89-18.85 162.01-17.93 161.14-17 159.44-17L159.44-17Q157.99-17 157.06-17.95 156.14-18.9 156.14-20.45L156.14-20.45Q156.14-21.65 156.81-22.78 157.49-23.9 158.84-24.78 160.19-25.65 162.16-26.18 164.14-26.7 166.74-26.7L166.74-26.7Q171.74-26.7 174.24-24.43 176.74-22.15 176.74-18.05L176.74-18.05 176.74-2.95 179.94-2.95 179.94-0.45Q179.19 0.05 177.94 0.33 176.69 0.6 175.39 0.6L175.39 0.6Q172.89 0.6 171.79-0.63 170.69-1.85 170.69-3.75L170.69-3.75 170.69-3.9 170.44-3.9Q170.09-3.05 169.54-2.25 168.99-1.45 168.14-0.83 167.29-0.2 166.06 0.2 164.84 0.6 163.14 0.6ZM165.69-3.4L165.69-3.4Q167.69-3.4 168.94-4.35 170.19-5.3 170.19-7.55L170.19-7.55 170.19-11.75 167.34-11.75Q164.34-11.75 163.06-10.68 161.79-9.6 161.79-7.6L161.79-7.6 161.79-6.7Q161.79-5 162.86-4.2 163.94-3.4 165.69-3.4Z" opacity="1" transform="matrix(1,0,0,1,0,0)" fill="#010c80" class="wordmark-text-0" data-fill-palette-color="primary" id="text-0"></path></svg></g></svg></g></svg></g></svg></g></svg></g></svg></g></svg></g><g mask="url(#7e348218-0324-4cc1-b249-06026a9bcd3e)"><g transform="matrix(4.8783735606375584, 0, 0, 4.8783735606375584, 1, 61.60319005126602)"><svg xmlns="http://www.w3.org/2000/svg" xmlns:xlink="http://www.w3.org/1999/xlink" version="1.1" x="0" y="0" viewBox="10.825594902038574 38.09199905395508 80.66622924804688 25.41699981689453" enable-background="new 0 0 100 100" xml:space="preserve" height="25.41699981689453" width="80.66622924804688" class="icon-none" data-fill-palette-color="accent" id="none"><path d="M31.376 42.592c-7.333 0-11.834 2.75-11.834 4.625s1.584 3.625 9.667 3.625 24.5-10.25 41.25-10.25c17.083 0.002 17.083 8.583 17.083 8.583s-2.254-1.958-13.583-1.958c-16.917 0-32.667 9.125-43.874 9.125-11.209 0-14.108-5.008-14.108-8.925 0-3.375 4.399-9.325 15.232-9.325s12.667 6.583 12.667 6.583S38.709 42.592 31.376 42.592zM10.876 48.759c0 0-2.167 14.75 21.916 14.75 24.084 0 33.251-10.167 51.918-10.167 5.654 0.12 6.666 2.792 6.666 2.792s2.25-7.375-13.084-7.375c-15.332 0-33.308 9.917-47.832 9.917C15.935 58.676 10.876 48.759 10.876 48.759z" fill="#77d4fc" data-fill-palette-color="accent"></path></svg></g></g></svg></g><defs></defs></svg><rect width="395.52" height="247.2" fill="none" stroke="none" visibility="hidden"></rect></g></svg></g></svg>